<svg xmlns="http://www.w3.org/2000/svg" width="19.925" height="17.088" viewBox="0 0 19.925 17.088">
  <g id="leftarrow" transform="translate(0 -31.842)">
    <g id="Group_1134" data-name="Group 1134" transform="translate(0 31.842)">
      <path id="Path_1168" data-name="Path 1168" d="M18.727,38.987a1.424,1.424,0,0,0-.247-.018H4.424l.307-.143a2.851,2.851,0,0,0,.805-.57l3.942-3.942a1.476,1.476,0,0,0,.207-1.889,1.425,1.425,0,0,0-2.138-.185L.418,39.368a1.426,1.426,0,0,0,0,2.016h0l7.128,7.128a1.426,1.426,0,0,0,2.138-.143,1.476,1.476,0,0,0-.207-1.889L5.543,42.533a2.851,2.851,0,0,0-.713-.52L4.4,41.82h14a1.476,1.476,0,0,0,1.5-1.2A1.426,1.426,0,0,0,18.727,38.987Z" transform="translate(0 -31.842)" fill="#fff"/>
    </g>
  </g>
</svg>
