<svg xmlns="http://www.w3.org/2000/svg" width="114.237" height="82.817" viewBox="0 0 114.237 82.817">
  <g id="logo" transform="translate(-1940.636 576.969)">
    <path id="Subtraction_9" data-name="Subtraction 9" d="M69.32,34.227a12.563,12.563,0,0,1-5.832-1.349,13.466,13.466,0,0,1-4.6-4.047,20.511,20.511,0,0,1-3.758-12.492A22.646,22.646,0,0,1,56.15,9.273a14.807,14.807,0,0,1,3.07-5.364A12.582,12.582,0,0,1,66.291-.057l.855,11.977a6.394,6.394,0,0,0-3.773,6.8L64.85,28.57a.816.816,0,0,0,.8.693h.026a.815.815,0,0,0,.785-.745l.712-8.553a.529.529,0,0,1,1.024,0l.713,8.553a.814.814,0,0,0,1.622,0l.712-8.553a.529.529,0,0,1,1.024,0l.713,8.553a.809.809,0,0,0,.783.745h.028a.808.808,0,0,0,.8-.693l1.478-9.851a6.4,6.4,0,0,0-3.772-6.8L73.145.138a12.532,12.532,0,0,1,6.168,3.791A14.912,14.912,0,0,1,82.384,9.3a22.527,22.527,0,0,1,1.023,7.039,23.47,23.47,0,0,1-.955,6.839,18.522,18.522,0,0,1-2.866,5.7,13.664,13.664,0,0,1-4.572,4.016A12.183,12.183,0,0,1,69.32,34.227Zm-30.612,0a12.563,12.563,0,0,1-5.832-1.349,13.466,13.466,0,0,1-4.6-4.047,20.511,20.511,0,0,1-3.758-12.492,22.643,22.643,0,0,1,1.024-7.065,14.8,14.8,0,0,1,3.071-5.364A12.564,12.564,0,0,1,35.484-.018l.777,12.376a6.25,6.25,0,0,1,4.821-.168L40.995-.173a12.582,12.582,0,0,1,7.707,4.1A14.917,14.917,0,0,1,51.773,9.3,22.518,22.518,0,0,1,52.8,16.339a23.466,23.466,0,0,1-.956,6.839,18.534,18.534,0,0,1-2.866,5.7A13.67,13.67,0,0,1,44.4,32.888,12.184,12.184,0,0,1,38.708,34.227Zm.166-20.868-.163,0c-3.467.121-6.153,4.1-5.987,8.868a10.856,10.856,0,0,0,1.594,5.4A6.419,6.419,0,0,0,37.937,30.5a4.715,4.715,0,0,0,1.211.16l.167,0a5.55,5.55,0,0,0,4.359-2.687A10.445,10.445,0,0,0,45.3,21.791a10.5,10.5,0,0,0-2-5.979A5.635,5.635,0,0,0,38.874,13.359Zm57.3,20.364a51.771,51.771,0,0,1-8.755-.567l-.567-15.6c-.182-4-.513-9.573-.986-16.566A67.558,67.558,0,0,1,95.375.339h.1l.709,10.2,4.334-.151,0-9.651a18.2,18.2,0,0,1,8.7,3.714,13.845,13.845,0,0,1,4,5.412,19.292,19.292,0,0,1,1.333,7.417,18.428,18.428,0,0,1-1.176,6.772,13.912,13.912,0,0,1-3.527,5.154A15.718,15.718,0,0,1,104,32.594,25.048,25.048,0,0,1,96.172,33.723Zm4.371-21.9h0l-4.282.149.647,18.56a.715.715,0,0,0,.713.69h.027c1.432-.049,2.621-1.088,3.535-3.087a23.514,23.514,0,0,0,1.588-5.89,62.876,62.876,0,0,0,.7-8.347.719.719,0,0,0-.564-.708l-2.336-.5-.031-.869ZM13.682,33.156H1.9L1.252,16.695C1.14,12.933.822,7.621.307.906h21.92l-.86,13.207c-.514-.084-1.592-.2-3.3-.357-1.031-.042-2.232-.071-3.569-.084l-.356,6.761c.139,0,.3,0,.479,0,1.429,0,3.514-.107,6.2-.319-.136.613-.349,1.629-.651,3.108-.152.84-.316,1.849-.5,3.086-.386-.083-1.3-.21-2.708-.378-.784-.062-1.571-.094-2.339-.094-.256,0-.515,0-.769.01l-.167,7.305Z" transform="translate(1940.329 -576.795)" fill="#fff"/>
    <text id="Wrap" transform="translate(1996.618 -501.152)" fill="#00ae21" font-size="36" font-family="ShowcardGothic-Reg, Showcard Gothic" letter-spacing="0.02em"><tspan x="-54.992" y="0">Wrap</tspan></text>
  </g>
</svg>
