<?xml version="1.0"?>
<svg xmlns="http://www.w3.org/2000/svg" id="Capa_1" enable-background="new 0 0 512 512" height="512px" viewBox="0 0 512 512" width="512px" class=""><g><g><g><path d="m10 316c16.57 0 30 13.43 30 30v60c0 33.14 26.86 60 60 60h312c33.14 0 60-26.86 60-60v-60c0-16.57 13.43-30 30-30z" fill="#eefaff" data-original="#EEFAFF" class=""/><path d="m76 106c16.57 0 30 13.43 30 30v60c0 33.14 26.86 60 60 60h180c33.14 0 60-26.86 60-60v-60c0-16.57 13.43-30 30-30z" fill="#eefaff" data-original="#EEFAFF" class=""/><g fill="#b3f1ff"><path d="m472 256c-20.047 0-411.969 0-432 0-16.57 0-30 13.43-30 30v30h156l21.71 43.42c5.08 10.16 15.47 16.58 26.83 16.58h82.92c11.36 0 21.75-6.42 26.83-16.58l21.71-43.42h156v-30c0-16.57-13.43-30-30-30z" data-original="#B3F1FF" class="active-path" style="fill:#481313" data-old_color="#B3F1FF"/><path d="m406 46h-300c-16.57 0-30 13.43-30 30v30h120l21.71 43.42c5.08 10.16 15.47 16.58 26.83 16.58h22.92c11.36 0 21.75-6.42 26.83-16.58l21.71-43.42h120v-30c0-16.57-13.43-30-30-30z" data-original="#B3F1FF" class="active-path" style="fill:#481313" data-old_color="#B3F1FF"/></g></g><g><circle cx="256" cy="466" r="10" data-original="#000000" class="" data-old_color="#000000" style="fill:#951E1E"/><path d="m10 326c11.028 0 20 8.972 20 20v60c0 38.599 31.401 70 70 70h111c5.522 0 10-4.478 10-10s-4.478-10-10-10h-111c-27.57 0-50-22.43-50-50v-60c0-7.283-1.966-14.112-5.382-20h115.202l18.946 37.892c6.818 13.636 20.526 22.108 35.774 22.108h82.92c15.248 0 28.956-8.472 35.774-22.108l18.946-37.902h115.201c-3.415 5.898-5.381 12.727-5.381 20.01v60c0 27.57-22.43 50-50 50h-111c-5.522 0-10 4.478-10 10s4.478 10 10 10h111c38.599 0 70-31.401 70-70v-60c0-11.028 8.972-20 20-20 5.522 0 10-4.478 10-10v-30c0-22.056-17.944-40-40-40h-77.077c12.993-12.716 21.077-30.428 21.077-50v-60c0-11.028 8.972-20 20-20 5.522 0 10-4.478 10-10v-30c0-22.056-17.944-40-40-40h-300c-22.056 0-40 17.944-40 40v30c0 5.522 4.478 10 10 10 11.028 0 20 8.972 20 20v60c0 19.572 8.084 37.284 21.077 50h-77.077c-22.056 0-40 17.944-40 40v30c0 5.522 4.478 10 10 10zm305.346 28.948c-3.408 6.817-10.262 11.052-17.886 11.052h-82.92c-7.624 0-14.478-4.235-17.886-11.052l-14.474-28.948h147.64zm-229.346-278.948c0-11.028 8.972-20 20-20h300c11.028 0 20 8.972 20 20v20h-340zm213.82 40-14.474 28.948c-3.408 6.817-10.262 11.052-17.886 11.052h-22.92c-7.624 0-14.478-4.235-17.886-11.052l-14.474-28.948zm-183.82 80v-60c0-7.283-1.966-14.112-5.382-20h79.201l18.946 37.892c6.819 13.636 20.527 22.108 35.775 22.108h22.92c15.248 0 28.956-8.472 35.774-22.108l18.946-37.902h79.201c-3.415 5.898-5.381 12.727-5.381 20.01v60c0 27.57-22.43 50-50 50h-180c-27.57 0-50-22.43-50-50zm-96 90c0-11.028 8.972-20 20-20h432c11.028 0 20 8.972 20 20v20h-472z" data-original="#000000" class="" data-old_color="#000000" style="fill:#951E1E"/></g></g></g> </svg>
